/* XPM */
static char *result[] = {
/* columns rows colors chars-per-pixel */
"64 64 256 2 ",
"   c black",
".  c #0000A8",
"X  c #00A800",
"o  c #00A8A8",
"O  c #A80000",
"+  c #A800A8",
"@  c #A85400",
"#  c gray66",
"$  c gray33",
"%  c #5454FC",
"&  c #54FC54",
"*  c #54FCFC",
"=  c #FC5454",
"-  c #FC54FC",
";  c #FCFC54",
":  c gray99",
">  c #ECECEC",
",  c gainsboro",
"<  c #D0D0D0",
"1  c #C0C0C0",
"2  c #B4B4B4",
"3  c gray66",
"4  c #989898",
"5  c gray55",
"6  c #7C7C7C",
"7  c gray44",
"8  c #646464",
"9  c gray33",
"0  c #484848",
"q  c gray22",
"w  c #2C2C2C",
"e  c #202020",
"r  c #FC0000",
"t  c #EC0000",
"y  c #E00000",
"u  c #D40000",
"i  c #C80000",
"p  c #BC0000",
"a  c #B00000",
"s  c #A40000",
"d  c #980000",
"f  c #880000",
"g  c #7C0000",
"h  c #700000",
"j  c #640000",
"k  c #580000",
"l  c #4C0000",
"z  c #400000",
"x  c #FCD8D8",
"c  c #FCB8B8",
"v  c #FC9C9C",
"b  c #FC7C7C",
"n  c #FC5C5C",
"m  c #FC4040",
"M  c #FC2020",
"N  c #FC0000",
"B  c #FCA85C",
"V  c #FC9840",
"C  c #FC8820",
"Z  c #FC7800",
"A  c #E46C00",
"S  c #CC6000",
"D  c #B45400",
"F  c #9C4C00",
"G  c #FCFCD8",
"H  c #FCFCB8",
"J  c #FCFC9C",
"K  c #FCFC7C",
"L  c #FCF85C",
"P  c #FCF440",
"I  c #FCF420",
"U  c #FCF400",
"Y  c #E4D800",
"T  c #CCC400",
"R  c #B4AC00",
"E  c #9C9C00",
"W  c #848400",
"Q  c #706C00",
"!  c #585400",
"~  c #404000",
"^  c #D0FC5C",
"/  c #C4FC40",
"(  c #B4FC20",
")  c #A0FC00",
"_  c #90E400",
"`  c #80CC00",
"'  c #74B400",
"]  c #609C00",
"[  c #D8FCD8",
"{  c #BCFCB8",
"}  c #9CFC9C",
"|  c #80FC7C",
" . c #60FC5C",
".. c #40FC40",
"X. c #20FC20",
"o. c #00FC00",
"O. c #00FC00",
"+. c #00EC00",
"@. c #00E000",
"#. c #00D400",
"$. c #04C800",
"%. c #04BC00",
"&. c #04B000",
"*. c #04A400",
"=. c #049800",
"-. c #048800",
";. c #047C00",
":. c #047000",
">. c #046400",
",. c #045800",
"<. c #044C00",
"1. c #044000",
"2. c #D8FCFC",
"3. c #B8FCFC",
"4. c #9CFCFC",
"5. c #7CFCF8",
"6. c #5CFCFC",
"7. c #40FCFC",
"8. c #20FCFC",
"9. c #00FCFC",
"0. c #00E4E4",
"q. c #00CCCC",
"w. c #00B4B4",
"e. c #009C9C",
"r. c #008484",
"t. c #007070",
"y. c #005858",
"u. c #004040",
"i. c #5CBCFC",
"p. c #40B0FC",
"a. c #20A8FC",
"s. c #009CFC",
"d. c #008CE4",
"f. c #007CCC",
"g. c #006CB4",
"h. c #005C9C",
"j. c #D8D8FC",
"k. c #B8BCFC",
"l. c #9C9CFC",
"z. c #7C80FC",
"x. c #5C60FC",
"c. c #4040FC",
"v. c #2024FC",
"b. c #0004FC",
"n. c #0000FC",
"m. c #0000EC",
"M. c #0000E0",
"N. c #0000D4",
"B. c #0000C8",
"V. c #0000BC",
"C. c #0000B0",
"Z. c #0000A4",
"A. c #000098",
"S. c #000088",
"D. c #00007C",
"F. c #000070",
"G. c #000064",
"H. c #000058",
"J. c #00004C",
"K. c #000040",
"L. c #282828",
"P. c #FCE034",
"I. c #FCD424",
"U. c #FCCC18",
"Y. c #FCC008",
"T. c #FCB400",
"R. c #B420FC",
"E. c #A800FC",
"W. c #9800E4",
"Q. c #8000CC",
"!. c #7400B4",
"~. c #60009C",
"^. c #500084",
"/. c #440070",
"(. c #340058",
"). c #280040",
"_. c #FCD8FC",
"`. c #FCB8FC",
"'. c #FC9CFC",
"]. c #FC7CFC",
"[. c #FC5CFC",
"{. c #FC40FC",
"}. c #FC20FC",
"|. c #FC00FC",
" X c #E000E4",
".X c #C800CC",
"XX c #B400B4",
"oX c #9C009C",
"OX c #840084",
"+X c #6C0070",
"@X c #580058",
"#X c #400040",
"$X c #FCE8DC",
"%X c #FCE0D0",
"&X c #FCD8C4",
"*X c #FCD4BC",
"=X c #FCCCB0",
"-X c #FCC4A4",
";X c #FCBC9C",
":X c #FCB890",
">X c #FCB080",
",X c #FCA470",
"<X c #FC9C60",
"1X c #F0945C",
"2X c #E88C58",
"3X c #DC8854",
"4X c #D08050",
"5X c #C87C4C",
"6X c #BC7848",
"7X c #B47044",
"8X c #A86840",
"9X c #A0643C",
"0X c #9C6038",
"qX c #905C34",
"wX c #885830",
"eX c #80502C",
"rX c #744C28",
"tX c #6C4824",
"yX c #5C4020",
"uX c #543C1C",
"iX c #483818",
"pX c #403018",
"aX c #382C14",
"sX c #28200C",
"dX c #600064",
"fX c #006464",
"gX c #006060",
"hX c #00001C",
"jX c #00002C",
"kX c #302410",
"lX c #480048",
"zX c #500050",
"xX c #000034",
"cX c gray11",
"vX c #4C4C4C",
"bX c gray36",
"nX c gray25",
"mX c gray19",
"MX c #343434",
"NX c #D8F4F4",
"BX c #B8E8E8",
"VX c #9CDCDC",
"CX c #74C8C8",
"ZX c #48C0C0",
"AX c #20B4B4",
"SX c #20B0B0",
"DX c #00A4A4",
"FX c #009898",
"GX c #008C8C",
"HX c #008484",
"JX c #007C7C",
"KX c #007878",
"LX c #007474",
"PX c #007070",
"IX c #006C6C",
"UX c #980088",
/* pixels */
"4 5 7 bXvXnX0 8 vXmXq 8 5 5 nXcXmXq 6 5 8 bX8 $ 0 8 $ 0 $ 8 bXvXbXbX6 vXq w nXnX$ vX$ q cXmX0 8 bX0 q nX7 6 $ bXvXbX0 nXvXbXq 8 ",
"5 8 q mX0 vXvXbX8 8 $ 0 6 5 bXmXe e 8 7 nX0 $ uXtX5 5 8 q vXvXw q e 8 q MX0 8 $ 0 nX0 0 mXw L.q 6 $ mXmXvX7 $ 8 8 bX$ 8 $ 8 q 7 ",
"nXw L.w vX8 bX0 $ 8 7 MXq 8 $ 0 MXcXcXcXq $ $ 0 7 5 5 5 0 nXq mXmXMX7 q mXe 7 7 e w L.q nXvX0 q 8 0 mX$ nX8 5 5 7 nX0 6 6 q 0 0 ",
"w MXnXL.w $ 8 vX0 8 7 q nX6 6 vXbXvXmXe w 0 MXq 5 4 5 5 8 bXnX$ $ $ 7 nXbXmXnX$ L.w L.q vXq q nXq $ 0 q 0 6 6 5 7 $ vX7 7 nX8 $ ",
"q 0 $ vXq $ $ 0 0 6 5 0 MX7 6 $ $ $ $ nXmX0 $ 0 5 5 5 4 7 8 q 8 6 8 $ mXbX8 8 q nXvXnXq MXmX0 $ 0 $ 6 6 q $ 8 8 vXnXvXq q 0 $ q ",
"vXbX0 bXnXq q nXvXbX5 6 vX$ $ 0 0 vXnXMX0 vX$ eX6 5 5 4 8 bXbX$ $ bXnXq q nXvXnX7 8 MXq w L.w 6 6 vX0 8 q MX7 6 nXmX$ 0 nXq q q ",
"$ $ mXnX0 nXw q $ $ 8 8 5 5 nXnX$ 0 bX0 $ 8 vX7 bX5 5 5 vX0 6 6 7 vXL.L.q nXmXbX5 $ 0 6 0 q cX6 4 6 e w q 0 6 7 mX$ 6 bX$ bXvX0 ",
"bXbX$ 8 nX$ $ 8 8 6 8 q q 8 $ vXvX0 7 5 6 bXL.w w bX7 0 e mXvXvX6 eXL.L.cXe nX5 5 7 7 6 0 0 e 7 5 5 vX0 0 $ 6 0 L.0 8 q 0 8 wX9X",
"8 bXnX7 q vX7 $ 6 6 bXbX0 MXnXq mXL.nX8 $ 6 6 $ MXmXe mXbX0 q q q 7 vXmXw cX0 5 4 6 8 7 mX$ q e bX6 $ nXvX7 6 q L.MXmXq 8 7 qX9X",
"bXnXnXvXbX$ $ vX8 6 6 6 7 8 8 bXw mX0 0 vX7 6 7 0 w 0 7 bXnX0 0 w MX7 bXmXe MX6 4 6 L.L.L.bXbXe cXw MXmXbX7 $ nXmXbXnXnX$ bXtXrX",
"0 0 0 7 5 7 $ 8 nX5 5 0 5 6 vXbXvXvX$ 8 yXMXq $ 0 iX$ 6 7 vX0 vXvXw w 7 8 MXw vX6 8 cXMXq bXbXw q 0 $ nXnX0 L.w cXq MXnXnXq q uX",
"bXbX7 bX8 8 $ 0 w q nXe 6 7 vX$ 8 bX8 bXbX8 bXbX$ nX0 8 $ 0 nXmXq vXvXbX7 nXbX7 vXw w 0 q nXnX0 0 bXnXmXvX8 e L.$ 7 nXvXvX$ q 8 ",
"0 bX6 $ q q vXnXnXw L.w $ nX$ 8 8 0 nXnX0 0 nXe nXq q q 0 0 $ vX$ $ $ q rXiX7 6 nXw MX$ nXnXq 8 $ nXw w MXbXvXq 7 7 mX8 bX$ MX$ ",
"0 $ nXvX5 6 8 $ 8 8 vXvX$ $ $ $ 6 7 vX0 vXw L.q bX0 0 q q q 0 $ $ $ nXmXpXe w vX0 mXMXvXbXnXnX6 7 bX$ 7 bXnX$ MXw w cX0 nXq vX8 ",
"vX$ vXbX4 5 0 8 8 8 7 5 6 8 vX0 7 7 bXbXbXnXMX$ 8 0 0 nX0 8 q nXq $ $ $ tXmXcXMXw q vXq bX0 MX8 nXnX6 4 6 0 vXnXw mX0 L.vX8 nXq ",
"0 vX$ 0 8 8 6 6 5 vX5 # # 4 7 vXnXvXbX$ 8 bX$ bX8 vXnXMXq 7 bXnX0 8 6 8 8 bXw nXnX8 $ q 0 bX0 nXe bX5 4 5 bX7 7 MX7 5 8 $ 7 vX$ ",
"$ nXvXvX0 nX7 7 6 nXbX4 # 4 6 $ 0 nX7 7 $ nXnXvXq q mX$ vXq nX$ $ 0 6 $ $ 8 $ q $ 7 $ q MX8 7 8 $ 5 4 4 4 6 7 7 L.8 5 6 q L.bXvX",
"8 0 $ bXvXbX$ vXnXnXnX8 8 vXbX$ bX$ bXbXnXvX$ bXvXbX$ $ 5 6 bX$ vXnX7 8 bXbXnXnXnX8 vXbXw vX6 bX$ 5 4 4 4 6 q w w q $ q w q 0 7 ",
"6 bXvXvX$ 5 6 $ vX6 5 q e 0 7 $ $ vX8 vX0 $ 8 nX$ bXbXL.bX4 4 6 q $ 8 $ 0 nXnXnXnX$ q 0 L.nX6 0 0 5 4 4 4 7 vXnX$ vXMXbX$ 7 7 6 ",
"vX$ 0 bX7 6 8 bX8 6 5 0 $ $ $ vX6 6 vXmXvX0 8 vX0 bX$ w e 6 4 7 nX$ 8 vXnXvX$ $ 7 5 8 w e mX8 7 nX7 4 4 5 vXvXmXq vX0 7 nXnX8 bX",
"8 6 bXbXbXnXbX6 5 bXbXbX7 7 $ MXbX5 0 $ 6 nXvX0 nX$ $ 0 w w 7 nXbX$ 0 nXnX0 nX6 5 4 5 0 q L.$ 6 nXw 6 5 8 q 8 0 mXvXMXq 0 L.nX0 ",
"7 8 0 vX$ nX0 6 5 6 q $ 6 $ nXnXMX7 nX7 5 bXq nX8 $ 8 7 6 vXmXL.vXnXq mXmX$ 0 0 5 4 4 7 0 L.vX5 6 0 0 nXmX0 bXbXvXvXmX8 7 cXw q ",
"bX0 0 vX8 vX$ 5 5 7 0 q 8 $ nX0 q 8 0 e q 6 0 0 7 7 bX0 8 vXMXMX$ bX0 q q q $ q 8 6 5 6 q mXvX6 6 nXmXq 0 0 q $ 6 8 q q nXw nXw ",
"q q 8 $ $ nX$ 5 5 8 $ 8 8 vXbX5 7 L.mXnXnX6 7 8 0 nXvX0 nX0 0 nX6 5 6 0 $ vXnXnXq L.vX$ 0 0 q 6 6 q L.w vXbX8 bX6 5 8 w L.w q L.",
"0 nX8 $ 8 vXvXbX7 8 0 7 7 $ 5 # 4 nXnXq 0 8 vXvXvX$ 8 8 0 nXvXq q bX0 nX0 0 $ nX$ $ nXbXbX0 mX8 7 0 0 nXq 8 7 8 6 5 5 bXnXnXnXw ",
"$ 7 bXbX8 $ 0 $ 7 7 $ bX$ q 4 # 6 nX$ 0 q q 0 vX$ q $ bX8 $ 7 7 MX0 0 nX$ bX7 nX8 6 $ 6 7 nX0 q 0 $ 8 0 q $ 8 6 5 5 6 6 8 0 nXmX",
"0 0 0 $ bX$ nXbXvXbX$ MXq q 7 5 $ mX$ 6 6 $ bX0 $ $ vX7 6 $ vX8 vXvX$ 7 6 $ 0 0 bX6 mXmXq 0 8 bXbXbX7 nX0 $ 0 bX7 nXL.0 7 7 $ 0 ",
"vXq q $ bXvX0 8 $ $ nXvX$ MXmX0 L.q 5 # 4 8 0 bXvXq nXbX$ nXbXq bXbXbX6 6 bXnX$ vXnXq vX0 $ $ 6 5 8 6 nXnXvXmX8 7 $ bX8 bX8 bXnX",
"6 bXnX0 bX$ vXvXbX$ 0 8 $ nXw nXL.nX4 # 4 0 q bXnXq mXbX6 5 7 MXnXq 0 nXq nXvX0 0 vX7 7 0 nXMX7 5 7 $ nXMXq q 7 7 7 6 6 6 bX$ $ ",
"6 vXw nX0 bX8 8 bX$ vXvXvX8 8 q mXnX8 6 8 q $ 0 vXnXnXrXbX5 5 8 6 q q q nXnX6 bXq 8 5 5 7 q q q vXq 0 nXq 0 vX$ q 6 5 5 5 7 $ $ ",
"8 0 q 7 q nXbX8 nX$ vX$ $ 8 7 nX8 7 0 0 MX8 8 vXvXnXvX7 5 4 6 6 5 nXbX8 0 $ 7 q uXq 6 4 5 $ bX0 q bX6 6 8 0 8 7 $ 5 4 5 6 0 q 0 ",
"0 vX$ 7 vXnXvX$ q 0 q nX8 6 bX$ 5 5 0 nXq bXvXvXvX$ $ 7 4 5 q 0 bXq 7 vX$ 7 8 L.$ nX7 5 5 bX0 $ bX6 vXbXbXvX0 nX8 6 5 4 6 vXq bX",
"0 nX0 $ $ 0 $ 7 7 vXq q 7 5 8 $ 6 0 0 0 $ MX$ $ nXvX$ vXvX0 MXnXq q nX8 6 0 0 $ q mXq 0 $ q q $ bX$ iX$ 7 $ q 8 7 7 6 5 5 bXnX6 ",
"8 vX0 $ 0 nXvX7 7 vX0 q q rXuXq q 8 7 vXvXMX7 5 0 vXbXbXvX0 bX8 6 8 vX6 5 6 nXbX$ 6 6 MXcXmXnXq bX7 bXMXvX$ q bX7 7 6 6 6 nXvX6 ",
"bX8 8 $ $ $ $ 8 6 vXvX$ nXMXuX7 rX8 0 e e nXw 6 8 $ 6 nX$ bX6 6 4 6 mXmXMX0 e L.6 4 5 0 bX6 8 w pXq bXMXMXnXq bX6 8 8 8 8 7 6 vX",
"0 0 vX$ bX6 vXvXbX8 0 5 4 6 $ 5 7 L.bX5 6 $ mXnXq w 6 q mX0 0 $ 7 0 mX$ nXq w vX5 4 8 nX6 4 6 MXnXnXnX8 $ $ 0 vX8 $ 0 nXq 7 6 $ ",
"vXvX$ bXvX0 vX6 7 8 0 4 4 5 0 $ bXq 5 # 4 vXMXq mXbX5 7 nX0 0 vXnXnXbX8 8 $ nX6 5 8 L.$ 6 5 7 0 $ bXvX7 bX$ $ 7 bX$ vX0 vXvX8 8 ",
"bXbX6 6 8 q mX$ 7 bX0 7 8 $ 6 vXnXyX5 # # 6 MX8 7 5 4 5 6 $ $ q 6 5 6 8 8 bXq 7 8 L.nXnX7 7 nX$ bXbX$ 8 7 7 6 5 6 8 $ $ bXbX0 bX",
"$ 8 7 6 8 nXnXq bX7 bXMXnXnX5 6 6 yXtX5 5 $ cX$ 5 7 $ q 0 nXbXMX7 6 8 nX7 6 $ 0 q 0 nXq 7 8 7 7 bXbX8 7 6 7 7 5 5 6 7 7 bX8 $ $ ",
"$ bX7 $ vXnX$ 8 bX7 8 q vXbX6 $ 6 6 e pXmXL.0 5 5 w $ $ nXvXq nX8 0 6 nX7 5 6 8 nX6 7 w w w 8 8 6 5 6 7 7 6 6 5 5 6 6 6 $ 8 $ $ ",
"8 0 q q 0 nXvXbX$ 8 vXMXq $ 6 vX8 8 q pXtXiX5 5 q w 6 8 6 vXnX8 8 bX6 rXq q bXnX7 4 6 MXq vXq mX$ 5 6 6 6 7 6 5 6 6 6 6 bX7 $ bX",
"7 nX0 6 6 0 8 5 6 bX$ $ nXnX7 $ 0 $ bXwXeXrX8 bXmX0 8 $ 8 $ 0 $ bXbX7 tX$ 0 8 8 8 8 vX0 mX0 nXq $ 6 6 6 bXq $ 7 7 6 6 6 8 $ $ $ ",
"vXnX6 4 6 0 6 6 7 vXbX7 bX0 bX0 $ vX8 7 5 5 $ nXvX8 nX6 8 0 8 $ $ bX$ tX$ 0 vXnX0 nXnXbXvX$ 0 nXbX6 6 8 nXq mXnXbX7 7 6 8 q $ 7 ",
"6 vX4 4 6 bX7 nXvXbX$ $ vXq MX$ 6 0 8 8 8XqXq 0 $ 7 0 6 7 $ bX8 7 bX8 6 7 bXnXnX8 7 0 $ 0 0 MXnXvX$ bX$ 8 bXnX$ 7 bXMXnXnXmX0 7 ",
"5 $ 5 8 nX6 7 vXbX$ 0 $ $ $ bX5 6 0 6 6 uXvX$ bXbXnXq vX0 0 0 $ 7 8 8 6 7 8 bX$ 8 8 nXbX$ MXnXbX8 nX0 vX8 bX8 7 8 $ mX$ vXq $ $ ",
"6 6 0 0 0 8 8 vX8 7 6 vX$ vX7 7 w nX7 $ q $ 6 7 7 bXbXvX0 nXbX8 $ 8 7 $ 6 4 6 8 6 7 0 7 8 nX$ 8 $ q $ $ 0 vXq 7 q q vX5 4 7 0 0 ",
"nXvX8 vX7 7 8 8 7 8 6 0 bX8 bX0 0 bX8 8 bX7 7 7 6 bX6 7 0 nX8 6 7 $ bXnX$ 6 8 bX8 $ nX0 nXnX7 5 vXq vX0 nXbXq bXvXnXbX4 # 6 mXMX",
"vX0 $ vX6 5 7 7 8 q 0 MXbX5 4 bXbX7 6 bX5 4 6 8 bX8 7 bX$ $ 8 7 6 7 8 vXq $ bX8 7 8 0 0 q 0 nX6 bXw w 0 nXnX$ bXvXmXq 5 5 0 w bX",
"8 $ nX0 6 5 6 8 nXvXbXq 0 7 5 6 5 bXvX0 5 4 6 6 7 7 6 7 7 7 8 bX6 8 6 6 $ 8 8 7 6 7 7 bXq q mXmXmXq q 8 7 vX7 $ nX0 0 nXMXq nX7 ",
"$ 6 $ nX$ 8 8 8 7 5 7 8 6 $ vXnX8 $ $ vX8 $ bX6 5 7 7 7 7 6 6 bX8 bX6 6 7 7 7 7 5 6 8 0 vXvXnXq w q 8 6 7 MXMXnX7 5 bXmXnX8 nX8 ",
"0 8 bX8 nXvX$ $ 6 6 nX7 4 $ nX8 $ 8 $ 8 5 7 8 vXbX$ 8 bX8 6 6 8 bX7 bX8 8 7 7 6 5 5 bXvX$ vXvX8 bXnX$ q e 0 q nX4 # 6 vX6 6 nXmX",
"0 q tXbXyX$ $ $ vXnXq 8 4 6 0 bX0 vXnX$ 6 7 7 nXnXmX0 8 7 8 6 7 $ 7 7 7 7 6 7 5 5 5 5 6 vXnXvX$ 8 vXw w e nX$ nX5 5 $ vX6 5 8 mX",
"$ nXuXtXwX$ 8 6 6 8 bX$ 5 6 nX$ vXq mXnXnXnX$ $ $ 0 bX7 7 vX$ $ bX7 6 7 6 5 7 6 5 5 6 bX$ 0 0 nX8 8 nXq q nX$ w nX0 $ 8 7 6 bXnX",
"8 vXyX5 5 8 7 7 7 8 bX8 $ $ vXbX8 7 6 6 vX0 8 8 8 7 7 6 7 $ $ 8 8 6 8 8 7 6 7 7 6 6 5 bX0 8 8 0 8 6 vX0 7 0 vX0 bX7 7 5 6 7 bXbX",
"7 7 8 4 6 bX6 0 8 7 8 8 bX7 $ 6 $ bX7 8 bXbX$ 0 bX0 7 7 8 8 6 6 7 $ $ 8 8 7 8 8 $ 0 $ 7 7 6 7 nX$ 7 $ 0 bXvXbXnX$ 6 bX5 6 7 vX8 ",
"7 5 bX5 5 0 q mX6 7 6 7 7 6 nX5 7 vX7 0 vXbX0 0 7 $ 7 5 7 7 4 5 6 vX8 5 8 6 6 8 nXnX0 6 5 8 q bX7 7 bXvX8 8 8 bXnX8 vX$ 8 7 vX6 ",
"bX6 vXq $ $ q MXq MX8 $ 0 nXw 8 5 0 7 nXw w nXnXbX8 8 7 bX0 5 5 bX$ 7 5 7 bXbXbX$ 8 6 5 5 $ q 8 6 4 bXvX7 5 7 bXvX6 7 $ 8 7 vX5 ",
"bX7 8 0 $ 7 vX8 7 q bX8 7 0 mXL.7 7 q mXnXq vXbXvX6 8 $ 8 bXbX0 vX$ 8 6 6 7 $ bXvX6 6 7 bX$ 7 bX4 5 nXvX$ vXuXiX0 6 5 vX6 bX$ 5 ",
"7 7 7 0 8 bX0 5 5 $ 7 bX6 0 q MXmX0 mXL.vX7 7 5 8 bX0 bX5 7 8 bX8 bX7 5 5 5 $ 0 0 5 4 6 $ 8 6 nX8 0 MX$ 0 0 rXnXq 7 7 vX7 6 5 4 ",
"7 8 $ nXbX$ q 0 $ $ $ $ 0 $ 8 $ q 0 7 0 mX$ 8 8 6 bXq 7 4 5 8 6 5 8 8 7 4 5 vX8 5 4 5 6 6 vX0 vX0 vX0 nXq q 5 $ 8 8 $ bX5 4 5 6 ",
"6 7 8 $ 8 8 0 0 bX6 8 5 bX6 7 bXnX$ bXbXq mXbXbX7 bXnX6 6 8 $ 6 5 6 8 8 6 7 q $ 5 6 0 MXvXq MXq q nXq nX0 vX6 $ 5 bX0 5 5 6 6 5 ",
"5 4 6 q $ nX0 $ $ bX8 6 bX7 7 7 6 6 0 bXvXq pX0 0 0 nXbX$ 7 7 8 5 6 7 4 6 $ bX8 vXnXq nX0 vX8 8 $ bXnX7 5 8 q q $ 0 6 4 5 $ $ 6 ",
"4 4 6 nXbX0 nX0 8 7 $ 0 yX6 8 vX6 4 $ 6 8 $ yXvX$ 0 $ 8 7 6 5 5 5 6 6 4 7 0 7 5 bXvXbX$ 8 6 7 $ 5 4 vX0 4 6 8 vXq 5 4 6 5 $ q 8 ",
"4 5 $ bX8 0 q 0 vX0 q nXq 0 vX0 bX$ mX8 bXvXvX0 7 8 bXbX8 bX6 6 6 7 6 5 8 nX7 7 bXbX5 8 q bX7 wX4 5 $ nX5 6 $ 7 0 5 bX8 6 7 mXvX"
};
